<svg width="91" height="28" viewBox="0 0 91 28" fill="none" xmlns="http://www.w3.org/2000/svg" class="sc-6dt8ej-0 sc-182c7fb-0 cfLHUx dkCEQy"><path fill-rule="evenodd" clip-rule="evenodd" d="M25.053 6.45a7.427 7.427 0 013.335.783c2.314 1.162 3.591 3.179 3.874 6.153.042.556.05 1.113.024 1.67v.491h-11.52l.2.538a3.856 3.856 0 002.21 2.353c1.698.71 3.535.629 5.615-.245a7.443 7.443 0 00.653-.317l.03-.018 1.611 2.405a9.089 9.089 0 01-2.888 1.341c-1.985.538-3.795.52-5.514-.047a7.526 7.526 0 01-4.532-4.037 7.953 7.953 0 01-.088-6.416 7.577 7.577 0 016.99-4.654zm-4.08 5.892l-.155.513h8.086l-.09-.471c-.296-1.557-1.686-2.668-3.457-2.766-2.028-.108-3.873 1.034-4.384 2.724zM50.842 6.578c1.864-.26 3.468-.052 4.912.64 2.172 1.04 3.368 2.764 3.461 4.962.093 2.28.074 4.512.052 6.877-.018.877-.018 1.762-.018 2.653h-.235a28.67 28.67 0 01-1.658-.017.72.72 0 01-.155-.182c-.12-.228-.238-.469-.366-.749-.044-.107-.09-.204-.14-.306l-.032-.07-.218-.464-.396.327c-1.103.913-2.2 1.446-3.355 1.628-2.117.346-3.967-.071-5.492-1.228-1.42-1.066-2.102-2.535-1.91-4.035.19-1.501 1.24-2.749 2.873-3.424a9.942 9.942 0 013.866-.67c.769 0 1.55.05 2.336.115l.815.073.852.076-.032-.464c-.105-1.62-1.353-2.792-3.178-2.986a7.614 7.614 0 00-4.335.881l-.383.197-1.93-1.845a9.544 9.544 0 014.666-1.99zm.51 12.533c1.986 0 3.766-1.267 4.503-3.296l.157-.45-.466-.085-.246-.047-.056-.01a5.742 5.742 0 00-.462-.078h-.06l-.025-.003c-1.628-.188-3.309-.383-4.985.106-.786.226-1.238.685-1.346 1.363a1.835 1.835 0 00.83 1.884c.402.266.852.45 1.324.543.275.048.554.073.833.073z" fill="currentColor"></path><path d="M87.014 6.723c-.246 0-.3.017-.4.285-.472 1.228-.983 2.483-1.455 3.684l-.422 1.053c-.337.843-.675 1.685-1.03 2.565l-.851 2.122-.514-1.204c-.078-.181-.142-.326-.201-.471l-.784-2.005c-.72-1.837-1.461-3.735-2.21-5.597a1.397 1.397 0 00-.246-.398c-.914-.04-1.835-.034-2.805-.03h-.447c.037.104.071.195.108.285.426 1.09.85 2.18 1.27 3.272 1.12 2.89 2.277 5.882 3.48 8.793a3.476 3.476 0 01-.167 3.284c-.91 1.682-2.163 2.48-3.834 2.431h-.064v2.987a5.91 5.91 0 005.247-2.006 13.058 13.058 0 001.992-3.311c1.613-3.85 3.193-7.786 4.735-11.593.527-1.31 1.057-2.62 1.59-3.93.024-.062.048-.125.073-.197h-.523c-.877-.005-1.707 0-2.542-.02zM74.465 11.728c-.319-2.277-1.589-4.035-3.48-4.826-1.891-.791-4.077-.452-5.949.943-.064.047-.13.09-.211.145l-.508.341-.2-.415c-.056-.118-.108-.23-.157-.339a4.227 4.227 0 00-.314-.616.654.654 0 00-.219-.214c-.479-.027-.982-.022-1.527-.017h-.246v14.938h3.065v-8.191c0-2.066 1.334-3.571 3.397-3.834 1.683-.219 2.889.631 3.228 2.27.1.518.15 1.045.147 1.574v8.203h3.1v-2.456-5.273a16.579 16.579 0 00-.126-2.233zM34.408.756h2.984v20.907h-2.984zM41.455.28h-.052a1.925 1.925 0 00-1.328.54 2.033 2.033 0 00-.05 2.884c.365.376.867.587 1.39.584A2.004 2.004 0 1041.454.28h.002z" fill="currentColor"></path><path fill-rule="evenodd" clip-rule="evenodd" d="M15.761 18.959a.277.277 0 01.064.017.494.494 0 01.002.086v2.793a4.401 4.401 0 01-2.38-.897 1.039 1.039 0 00-1.186-.12c-2.377 1.039-4.38 1.282-6.293.761-3.713-1.01-6.047-4.377-5.8-8.378.213-3.468 3.077-6.501 6.66-7.056a7.25 7.25 0 011.13-.098c.82 0 1.675.179 3.277.67l.513.152V0h2.861v16.842c0 .258.008.503.022.749.047.754.447 1.24 1.13 1.368zm-4.423-.87a.92.92 0 00.425-.754c.018-.352.017-.707.016-1.057v-1.853c.008-1.073.013-2.184-.392-3.267-.46-1.203-1.282-1.925-2.456-2.144a5.038 5.038 0 00-2.545 9.714c.527.177 1.08.268 1.636.268 1.265 0 2.4-.455 3.316-.906z" fill="currentColor"></path><path fill="currentColor" d="M39.885 6.737h2.999v14.95h-2.999z"></path></svg>