<svg xmlns="http://www.w3.org/2000/svg" width="124" height="83" fill="none" viewBox="0 0 124 83" w="auto" h="3rem" class="sc-6dt8ej-0 eROugO"><path fill="currentColor" d="M83.777 62.425c.216 0 .444.036.684.108.264.072.552.216.864.432.408.312.888.588 1.44.828.576.24 1.236.36 1.98.36s1.44-.18 2.088-.54a4.75 4.75 0 001.656-1.584c.432-.696.648-1.524.648-2.484 0-.912-.192-1.668-.576-2.268a3.529 3.529 0 00-1.476-1.368 4.151 4.151 0 00-1.944-.468c-.528 0-.972.048-1.332.144-.336.096-.672.204-1.008.324a3.819 3.819 0 01-1.116.144c-.552 0-.984-.192-1.296-.576-.288-.384-.432-.84-.432-1.368 0-.336.06-.636.18-.9.144-.264.348-.552.612-.864l6.336-6.732.972.828h-8.856c-.576 0-1.056-.192-1.44-.576-.384-.384-.576-.864-.576-1.44 0-.552.192-1.008.576-1.368.384-.384.864-.576 1.44-.576h11.016c.744 0 1.296.204 1.656.612.384.408.576.924.576 1.548 0 .312-.084.624-.252.936a3.885 3.885 0 01-.612.792l-6.372 6.84-.972-1.224c.264-.12.624-.228 1.08-.324.48-.096.876-.144 1.188-.144 1.416 0 2.64.372 3.672 1.116a6.95 6.95 0 012.412 2.844c.576 1.152.864 2.4.864 3.744 0 1.776-.396 3.312-1.188 4.608-.792 1.296-1.908 2.292-3.348 2.988-1.44.696-3.12 1.044-5.04 1.044-.888 0-1.764-.108-2.628-.324-.864-.216-1.608-.504-2.232-.864-.528-.288-.888-.6-1.08-.936-.168-.36-.252-.696-.252-1.008 0-.552.192-1.068.576-1.548.408-.504.912-.756 1.512-.756zm26.056 5.436c-2.064 0-3.816-.54-5.256-1.62-1.416-1.104-2.496-2.628-3.24-4.572-.744-1.968-1.116-4.224-1.116-6.768 0-2.568.372-4.824 1.116-6.768.744-1.944 1.824-3.456 3.24-4.536 1.44-1.104 3.192-1.656 5.256-1.656s3.804.552 5.22 1.656c1.44 1.08 2.532 2.592 3.276 4.536.744 1.944 1.116 4.2 1.116 6.768 0 2.544-.372 4.8-1.116 6.768-.744 1.944-1.836 3.468-3.276 4.572-1.416 1.08-3.156 1.62-5.22 1.62zm0-4.32c1.008 0 1.872-.312 2.592-.936.744-.648 1.32-1.608 1.728-2.88.408-1.296.612-2.904.612-4.824 0-1.944-.204-3.552-.612-4.824-.408-1.272-.984-2.22-1.728-2.844-.72-.648-1.584-.972-2.592-.972-.984 0-1.848.324-2.592.972-.744.624-1.32 1.572-1.728 2.844-.408 1.272-.612 2.88-.612 4.824 0 1.92.204 3.528.612 4.824.408 1.272.984 2.232 1.728 2.88a3.913 3.913 0 002.592.936z"></path><path stroke="currentColor" stroke-linecap="round" stroke-linejoin="round" stroke-width="7.235" d="M41.487 21.35v20.301M59.081 51.802l-17.594-10.15M65.256 29.683h16.917V12.765"></path><path stroke="currentColor" stroke-linecap="round" stroke-linejoin="round" stroke-width="7.235" d="M67.794 67.958a37.218 37.218 0 110-52.613l14.38 14.338"></path></svg>